<?xml version="1.0" standalone="no"?>
<!DOCTYPE svg PUBLIC "-//W3C//DTD SVG 20010904//EN"
 "http://www.w3.org/TR/2001/REC-SVG-20010904/DTD/svg10.dtd">
<svg version="1.0" xmlns="http://www.w3.org/2000/svg"
 width="575.000000pt" height="575.000000pt" viewBox="0 0 575.000000 575.000000"
 preserveAspectRatio="xMidYMid meet">

<g transform="translate(0.000000,575.000000) scale(0.100000,-0.100000)"
fill="#000000" stroke="none">
<path d="M20 2875 l0 -2865 2865 0 2865 0 0 2865 0 2865 -2865 0 -2865 0 0
-2865z m5670 0 l0 -2805 -2805 0 -2805 0 0 2805 0 2805 2805 0 2805 0 0 -2805z"/>
<path d="M935 3762 c-216 -56 -387 -219 -484 -462 -63 -158 -91 -390 -72 -592
41 -434 236 -723 541 -804 91 -24 302 -24 390 0 225 61 395 225 465 449 12 40
26 93 29 119 l7 47 -33 5 c-83 13 -259 28 -273 23 -8 -4 -15 -17 -15 -30 0
-101 -111 -262 -220 -319 -64 -33 -204 -33 -271 0 -103 51 -191 177 -230 333
-27 109 -37 379 -19 512 40 293 162 451 358 464 172 12 300 -102 365 -325 13
-46 28 -83 33 -84 27 -2 284 26 294 32 15 9 -9 122 -49 225 -75 195 -214 332
-401 395 -92 32 -314 38 -415 12z"/>
<path d="M3910 2836 l0 -926 170 0 170 0 0 380 0 380 227 -2 227 -3 27 -65
c15 -36 79 -206 144 -377 l118 -313 179 0 c140 0 179 3 175 13 -36 88 -317
799 -317 801 0 2 15 9 33 17 123 49 233 170 271 297 40 137 29 297 -29 420
-66 139 -182 229 -356 273 -78 20 -116 22 -561 26 l-478 5 0 -926z m903 631
c103 -33 170 -105 188 -200 19 -107 -22 -210 -106 -269 -71 -49 -133 -58 -402
-58 l-243 0 0 276 0 276 258 -5 c195 -3 269 -8 305 -20z"/>
<path d="M2222 3428 l-82 -83 242 -243 243 -244 -245 -238 -245 -239 85 -86
85 -85 242 242 243 243 243 -243 242 -242 83 83 83 83 -243 242 -243 242 243
242 242 243 -85 85 -86 85 -239 -245 -239 -245 -242 243 c-133 133 -243 242
-243 242 -1 0 -38 -37 -84 -82z"/>
</g>
</svg>
